<svg xmlns="http://www.w3.org/2000/svg" xmlns:xlink="http://www.w3.org/1999/xlink" viewBox="0 0 400 300" width="406" height="306" class="illustration styles_illustrationTablet__1DWOa"><defs><linearGradient id="linear-gradient" x1="323.25" y1="206.59" x2="342.16" y2="187.43" gradientUnits="userSpaceOnUse"><stop offset="0" stop-color="#fff" stop-opacity="0"></stop><stop offset="1" stop-color="#9e005d"></stop></linearGradient><linearGradient id="linear-gradient-2" x1="98.82" y1="228.84" x2="115.42" y2="212.03" xlink:href="#linear-gradient"></linearGradient><linearGradient id="linear-gradient-3" x1="1964.89" y1="243.11" x2="1941.51" y2="218.33" gradientTransform="matrix(-1, 0, 0, 1, 2182.61, 0)" xlink:href="#linear-gradient"></linearGradient><linearGradient id="linear-gradient-4" x1="2069.46" y1="179.38" x2="2046.08" y2="154.6" gradientTransform="matrix(-1, 0, 0, 1, 2182.61, 0)" xlink:href="#linear-gradient"></linearGradient><linearGradient id="linear-gradient-5" x1="2016.7" y1="211.4" x2="1993.32" y2="186.62" gradientTransform="matrix(-1, 0, 0, 1, 2182.61, 0)" xlink:href="#linear-gradient"></linearGradient></defs><title>PP</title><g style="isolation: isolate;"><g id="Layer_2" data-name="Layer 2"><path d="M194.28,291.14,14.56,184.93C8.84,181.71,3.93,176.44,9.51,173L189.88,69c2.71-1.68,6.82-2.78,9.57-1.18L388.11,177.34c5.72,3.32,6.75,12.6,1,15.93L218,291A23.9,23.9,0,0,1,194.28,291.14Z" fill="#cca8ff"></path><polygon points="358.51 194.6 329.23 212.22 307.15 199.18 335.14 185.21 358.51 194.6" opacity="0.63" fill="url(#linear-gradient)" style="mix-blend-mode: multiply;"></polygon><polygon points="129.98 218.53 105.56 234.57 84.48 222.11 111.69 203.31 129.98 218.53" opacity="0.63" fill="url(#linear-gradient-2)" style="mix-blend-mode: multiply;"></polygon><polyline points="225.44 101.88 225.44 211.79 262.25 236.12 303.89 212.24 303.89 98.75" opacity="0.3"></polyline><polygon points="262.25 122.56 262.25 236.12 303.89 212.24 303.89 98.75 262.25 122.56" opacity="0.3"></polygon><polygon points="225.44 101.88 267.37 77.67 303.89 98.75 262.25 122.56 225.44 101.88" opacity="0.3"></polygon><path d="M226,213.6l39,20.13-39.72,24.91h-1c-16.08-8.87-27-15.45-38.4-22.51C200.63,228.26,212.36,223.23,226,213.6Z" opacity="0.63" fill="url(#linear-gradient-3)" style="mix-blend-mode: multiply;"></path><polyline points="225.44 101.88 225.44 211.79 262.25 236.12 303.89 212.24 303.89 98.75" opacity="0.18"></polyline><path d="M121.47,149.87l39,20.13-39.72,24.91h-1c-16.08-8.87-27-15.45-38.4-22.51C96.07,164.53,107.79,159.5,121.47,149.87Z" opacity="0.63" fill="url(#linear-gradient-4)" style="mix-blend-mode: multiply;"></path><path d="M174.23,181.89l39,20.13-39.72,24.91h-1c-16.08-8.87-27-15.45-38.4-22.51C148.83,196.55,160.55,191.52,174.23,181.89Z" opacity="0.63" fill="url(#linear-gradient-5)" style="mix-blend-mode: multiply;"></path><polyline points="121.53 101.88 121.53 150.76 158.34 171.1 199.98 149.4 199.98 98.75" fill="#8bd346"></polyline><polygon points="158.34 122.56 158.34 171.1 199.98 149.4 199.98 98.75 158.34 122.56" fill="#72b22f"></polygon><polygon points="121.53 101.88 163.46 77.67 199.98 98.75 158.34 122.56 121.53 101.88" fill="#72b22f"></polygon><polyline points="172.81 103.52 172.81 183.02 209.62 204.41 251.26 179.96 251.26 100.4" fill="#f49992"></polyline><polygon points="209.62 124.21 209.62 204.41 251.26 180.69 251.26 100.4 209.62 124.21" fill="#ea6b65"></polygon><polygon points="172.81 103.52 214.74 79.31 251.26 100.4 209.62 124.21 172.81 103.52" fill="#ffc8c2"></polygon><polyline points="225.44 101.88 225.44 211.79 262.25 236.12 303.89 212.24 303.89 98.75" fill="#68e1fd"></polyline><polygon points="262.25 122.56 262.25 236.12 303.89 212.24 303.89 98.75 262.25 122.56" fill="#68e1fd"></polygon><polyline points="225.44 101.88 225.44 211.79 262.25 236.12 303.89 212.24 303.89 98.75" opacity="0.12"></polyline><polygon points="262.25 122.56 262.25 236.12 303.89 212.24 303.89 98.75 262.25 122.56" fill="#68e1fd"></polygon><polygon points="262.25 122.56 262.25 236.12 303.89 212.24 303.89 98.75 262.25 122.56" opacity="0.31"></polygon><polygon points="225.44 101.88 267.37 77.67 303.89 98.75 262.25 122.56 225.44 101.88" fill="#68e1fd"></polygon><path d="M164.41,158.54a19.67,19.67,0,0,1,4.07-2.11c1.49-.52,6-5.07,6.3-5.54s1.21-2.72,2-2.82a5.73,5.73,0,0,1,2.37.89s2.5-2.24,4.46-1.33c0,0,1.8,1.13,1.39,6.47a1.26,1.26,0,0,1,.17.14,21.8,21.8,0,0,1,0,2.54,7.13,7.13,0,0,1-3.29,2.62c-1.69.74-5.45,3.51-7.8,3.95a19.46,19.46,0,0,1-8.33-.8,2.73,2.73,0,0,1-1.68-2.35A2.39,2.39,0,0,1,164.41,158.54Z" fill="#e05e00"></path><path d="M178.65,148.73s2.9-2.07,4.93-1.1,1.43,5.76,1.43,5.76-.21,2.74-3.63,4.11-3,2.82-7.4,3.87-9-.35-9.71-1.72,2-2.32,2.24-2.48,4.25-2.27,5.22-3.4,2.67-3.08,3.31-4.06.9-1.88,1.95-1.72A3.21,3.21,0,0,1,178.65,148.73Z" fill="#ffc019"></path><path d="M169.6,155.28a.29.29,0,0,0,.34.26H170a21.09,21.09,0,0,1,2.61,1.73.3.3,0,0,0,.46-.31q-.22-.73-.42-1.47a9.82,9.82,0,0,1,2,.46.3.3,0,0,0,.23-.55h0a.43.43,0,0,1,0-.11,3.82,3.82,0,0,0-.16-.41l-.33-.81a6.27,6.27,0,0,1,1.55.58c.32.17.65-.28.37-.47a10.18,10.18,0,0,0-.48-1.54,7.44,7.44,0,0,1,2.17.32c.37.12.56-.45.2-.56a8.34,8.34,0,0,0-2.63-.35,10,10,0,0,0-.56-1c-.2-.32-.74-.06-.53.26s.31.51.44.77c-.5,0-1,.08-1.49.14a.31.31,0,0,0-.16,0,.24.24,0,0,0-.19.2.28.28,0,0,0,0,.2l.32.7a7.07,7.07,0,0,0-1.29,0l0,0a6.11,6.11,0,0,1-.45.45q.13.53.26,1.06a10.43,10.43,0,0,0-1.74.09h0C170,155,169.78,155.16,169.6,155.28Zm4.49-1.88-.29-.65c.46-.05.92-.09,1.38-.11a9.43,9.43,0,0,1,.42,1.19A7,7,0,0,0,174.09,153.4Zm-1.58,1.47q-.12-.47-.23-.93a6.43,6.43,0,0,1,1.39,0l.25.59c.07.17.13.4.2.63A10.36,10.36,0,0,0,172.52,154.86Zm-1.48.56a9.53,9.53,0,0,1,1,0l.22.81C171.87,156,171.46,155.68,171,155.43Z" fill="#e05e00"></path><path d="M172.2,162.94a19.67,19.67,0,0,1,4.07-2.11c1.49-.52,6-5.07,6.3-5.54s1.21-2.72,2-2.82a5.73,5.73,0,0,1,2.37.89s2.5-2.24,4.46-1.33c0,0,1.8,1.13,1.39,6.47a1.26,1.26,0,0,1,.17.14,21.8,21.8,0,0,1,0,2.54,7.13,7.13,0,0,1-3.29,2.62c-1.69.74-5.45,3.51-7.8,3.95a19.46,19.46,0,0,1-8.33-.8,2.73,2.73,0,0,1-1.68-2.35A2.39,2.39,0,0,1,172.2,162.94Z" fill="#e05e00"></path><path d="M186.43,153.13s2.9-2.07,4.93-1.1,1.43,5.76,1.43,5.76-.21,2.74-3.63,4.11-3,2.82-7.4,3.87-9-.35-9.71-1.72,2-2.32,2.24-2.48,4.25-2.27,5.22-3.4,2.67-3.08,3.31-4.06.9-1.88,1.95-1.72A3.21,3.21,0,0,1,186.43,153.13Z" fill="#ffc019"></path><path d="M177.39,159.67a.29.29,0,0,0,.34.26h.09a21.09,21.09,0,0,1,2.61,1.73.3.3,0,0,0,.46-.31q-.22-.73-.42-1.47a9.82,9.82,0,0,1,2,.46.3.3,0,0,0,.23-.55h0a.43.43,0,0,1,0-.11,3.82,3.82,0,0,0-.16-.41l-.33-.81a6.27,6.27,0,0,1,1.55.58c.32.17.65-.28.37-.47a10.18,10.18,0,0,0-.48-1.54,7.44,7.44,0,0,1,2.17.32c.37.12.56-.45.2-.56a8.34,8.34,0,0,0-2.63-.35,10,10,0,0,0-.56-1c-.2-.32-.74-.06-.53.26s.31.51.44.77c-.5,0-1,.08-1.49.14a.31.31,0,0,0-.16,0,.24.24,0,0,0-.19.2.28.28,0,0,0,0,.2l.32.7a7.07,7.07,0,0,0-1.29,0l0,0a6.11,6.11,0,0,1-.45.45q.13.53.26,1.06a10.43,10.43,0,0,0-1.74.09h0C177.74,159.43,177.57,159.56,177.39,159.67Zm4.49-1.88-.29-.65c.46-.05.92-.09,1.38-.11a9.43,9.43,0,0,1,.42,1.19A7,7,0,0,0,181.88,157.79Zm-1.58,1.47q-.12-.47-.23-.93a6.43,6.43,0,0,1,1.39,0l.25.59c.07.17.13.4.2.63A10.36,10.36,0,0,0,180.3,159.26Zm-1.48.56a9.53,9.53,0,0,1,1,0l.22.81C179.65,160.35,179.24,160.08,178.82,159.82Z" fill="#e05e00"></path><path d="M196.93,63.19s-5.74,19.27-6.87,23.08S176.25,95,178.69,97.73s10.87,6,10.87,6,11.09-11.84,12.33-15" fill="#5e331f"></path><path d="M207.47,89.28S213,105.44,211,108.11s-19.79,15.2-21.31,16.7-3.39,24.73-3.39,24.73c-4.95,2.64-10.86-.5-10.86-.5s-3.14-28.45.31-34.12,22-26,22.83-27.44" fill="#b76748"></path><path d="M205.51,91.71c-.81,1.41-19.38,21.78-22.83,27.44s-.31,34.12-.31,34.12,5.91,3.14,10.86.5c0,0,1.88-23.23,3.39-24.73s19.63-13.86,21.31-16.7c5.18-8.77,1.11-20.83,1.11-20.83" fill="#b76748"></path><path d="M203.2,47a.39.39,0,0,1,0,.78A.39.39,0,0,1,203.2,47Z" fill="#1c5028"></path><path d="M220.6,95.76a49.63,49.63,0,0,0,1.68-10.27A108,108,0,0,0,222.61,71c-.2-2.07-.43-4.2-1.74-5.9-3-3.86-11.66-8.86-16.55-9.63-11.3-1.78-7.62,18.23-7.39,25.19.1,3-2.45,7.94,1.46,11.14s16.26,7.37,18.88,7.55C218.71,99.4,219.83,97.59,220.6,95.76Z" fill="#5e331f"></path><path d="M212.23,52.74l0,6s-1.94,1.37-7.13-.75l-.52-3.5" fill="#f4a876"></path><path d="M211,46.34l.82.06a.49.49,0,0,1-.07,1l-.82-.06A.49.49,0,0,1,211,46.34Z" fill="#1c5028"></path><path d="M203.77,50a7.5,7.5,0,0,0,7.55,2.06c.61-.17.8.79.19,1A8.49,8.49,0,0,1,203,50.68C202.6,50.23,203.34,49.59,203.77,50Z" fill="#1c5028"></path><path d="M200.72,43.49s.05,12.12,3.07,12.91,6.47-.53,7.64-2,3.95-8.91,3-10.37S202.57,41.4,200.72,43.49Z" fill="#ffbe8d"></path><path d="M199,39.09a4.93,4.93,0,0,1,2.15-.19A4.77,4.77,0,0,1,203,36.38a5,5,0,0,1,5.23-.06,3.77,3.77,0,0,1,.76.62,4.46,4.46,0,0,1,3.53-.93,3.76,3.76,0,0,1,3,2.71,3.16,3.16,0,0,1,.07,1.17,3.59,3.59,0,0,1,3,2.73,3.56,3.56,0,0,1-.66,3.08,3.14,3.14,0,0,1,.46,3.36,3.48,3.48,0,0,1-2.94,2,3.32,3.32,0,0,1,0,1.79c-.73,1.39-2.5,1.86-4.13,2.12,0-.76,0-1.52,0-2.29a.82.82,0,0,0,0-.21,6.73,6.73,0,0,0,1.47-1.58c.57-.79,1-1.95.22-2.76a1.76,1.76,0,0,0-2.73.42,9.2,9.2,0,0,0-.52-1.16h0c-.64-2-2.63-2.33-4.52-2.48-3,1.32-7.25,2.11-8.16-1.61A3.42,3.42,0,0,1,199,39.09Z" fill="#bc4824"></path><path d="M213.33,58.63l-1.27-2s-3.36,1.85-4.67,2S205,56.77,205,56.77s-1.54,1.8-1.38,2.12.16,5.53.36,5.3,2.79-2.12,2.79-2.12l-.26,3,7.78-6Z" fill="#b76748"></path><polyline points="198.25 111.77 215.18 101.9 192.72 88.99 175.81 98.12" fill="#68e1fd"></polyline><polyline points="198.25 111.77 215.18 101.9 192.72 88.99 175.81 98.12" opacity="0.38"></polyline><path d="M193.87,92.3s4.44,19.71,4.38,19.46-21.93-12-22.08-12.41-5.78-20.41-5.78-20.41Z" fill="#68e1fd"></path><ellipse cx="183.6" cy="95.35" rx="2.34" ry="3.52" transform="translate(-22.39 76.09) rotate(-22.1)" fill="#fff"></ellipse><path d="M205.16,103.2s-2.83,1.18-3.5,1.43-3.71,4.77-3.84,5.14.73.49,1.52,0c0,0-1.05,1.1-.51,1.45s1.49-.47,1.71-.69c0,0-.64.79,0,1.11s1.54-.74,1.54-.74a.78.78,0,0,0,.27.8c.42.39,1.56-.93,1.83-1.4s1.16-1.73,1.71-1.81a7.44,7.44,0,0,0,3-.69c.92-.59,2.33-3.57,2.33-3.57l-3.52-2.82Z" fill="#ffbe8d"></path><path d="M211.89,106.64c2.32-1.78,7-4.59,8.55-7.89C224.5,90.32,222.72,76,222.72,76l-11.29,8.35,2.24,10.22s-5.42,4.91-7.89,7.36C208.16,104.43,208.72,105.39,211.89,106.64Z" fill="#5e331f"></path><path d="M336.6,181.55a3,3,0,0,1-1.27-.27l-.19,1.28,20.57.53v-1.53Z" fill="#ba4d02"></path><path d="M335.33,181.32l-.19,1.23,11.36,6.56v-1.59C342.67,185.66,339,183.53,335.33,181.32Z" fill="#ba4d02"></path><path d="M346.79,92.65a3.28,3.28,0,0,1-2-.28l-13,100.54c.79.48,1.61.91,2.42,1.37L347.39,92.58Z" fill="#ba4d02"></path><path d="M349.79,92.53a6.56,6.56,0,0,1-1.43,0c-.38,0-.77,0-1.15.06L356,195.68a20.89,20.89,0,0,1,2.08-.88l.35-.18.07,0Z" fill="#ba4d02"></path><path d="M348.37,92.54a11.83,11.83,0,0,0-1.57.11,3.91,3.91,0,0,1-.62,0l-.86,109h0a2.68,2.68,0,0,1,1.38-.11h.74l.44,0,.86-108.91Z" fill="#ba4d02"></path><path d="M334.15,94.27v22.52s25.91.77,25.91,0V94.27" fill="#68e1fd"></path><ellipse cx="347.11" cy="94.23" rx="12.96" ry="6" fill="#ba4d02"></ellipse><ellipse cx="347.11" cy="117.13" rx="12.96" ry="6" fill="#68e1fd"></ellipse><path d="M128.13,123.17l13.74,7.9s5.16-2.74,6.18-6.86-2.36-8.05.35-13.94,9.35-9.33,7.69-16.87l-21.43-8.05s1.3,8.06-1.84,10-6.38,9.9-6,14S129.87,120.68,128.13,123.17Z" fill="#ffc8c2"></path><path d="M152.54,95.08l-14.9-5.34c-.61-.22-.87.75-.27,1L152.27,96C152.88,96.26,153.14,95.29,152.54,95.08Z" fill="#fff"></path><path d="M140.67,94.34q-1.87-.75-3.77-1.44c-.61-.22-.87.75-.27,1q1.9.69,3.77,1.44C141,95.55,141.26,94.58,140.67,94.34Z" fill="#fff"></path><path d="M147.08,100.22l-11.86-4.84c-.6-.24-.85.72-.27,1l11.86,4.84C147.41,101.43,147.67,100.46,147.08,100.22Z" fill="#fff"></path><path d="M136.94,99.53a34.06,34.06,0,0,0-3.27-1.65c-.58-.26-1.09.6-.5.86a34.06,34.06,0,0,1,3.27,1.65A.5.5,0,0,0,136.94,99.53Z" fill="#fff"></path><path d="M112.33,213.17,108.19,212l.65-5S113.32,207.73,112.33,213.17Z" fill="#42210b"></path><path d="M106.69,198.49s-1.46,17.06-1.07,17.26,4.37.54,4.37.24.24-7.76.24-7.76,2,3.3,2.09,4.94c0,0,4.76-2.71,5.65-4.89s-2-11.28-3.15-11.78" fill="#fdf2d6"></path><path d="M122.58,222.11l-4.69-5,3.06-3.87S123.81,219.55,122.58,222.11Z" fill="#42210b"></path><path d="M115.61,202.38l-2.19,20.47A24.29,24.29,0,0,0,117.6,224a13.28,13.28,0,0,0,2.54-1.2l.79-6.83s2,2,1.66,6.18c0-.28,3.24-1.35,3.65-1.54a24.23,24.23,0,0,0,3.75-2c1.25-.86,5.87-4.68,3.39-6.2-2.11-1.29-9-.67-9-.67l-.1-8.45" fill="#fdf2d6"></path><path d="M107.43,129.06c0-.39.91-4.48.63-4.48.73-2.31.38-.2,1.18-1.14l19.82-2.34s4,14.16,5.51,38.56c1.19,18.92-8.1,47.05-8.1,47.05s-9.61,2.44-14.23-2.3l.18-4.07a48.46,48.46,0,0,1-7.14-.58C102.9,176.25,104.71,152.43,107.43,129.06Z" fill="#68e1fd"></path><path d="M111.69,203.31l2.49-17.53c.79-5.59,2-11.33,2-17s-1.91-10.74-2.86-16.14a63.19,63.19,0,0,1-.68-15.83c.1-1.23,1.87-1.24,1.77,0a61.44,61.44,0,0,0,1.08,17.68c1.11,5.19,2.65,10.11,2.43,15.51s-1.3,10.91-2.07,16.29l-2.49,17.53C113.23,205.05,111.52,204.53,111.69,203.31Z" fill="#42210b"></path><path d="M132.53,113.41c.61-.67,1.24-1.32,1.87-2l0-.07a55.3,55.3,0,0,1,5.43-5.74l2.54-5.43v0a.82.82,0,0,1,1.4-.25c.66.57.06,3-.19,3.69s.2-.57-.09.26c0,.14-.2.78-.33.83a11.77,11.77,0,0,1,4.86-1.26.89.89,0,0,1,.76,1.33,2.54,2.54,0,0,1-.73.68l.19,0c1.17-.16,2.06.34,1.72,1.67a.88.88,0,0,1-.16.32.74.74,0,0,1-.54.53l.06.15a1.15,1.15,0,0,1,.45,1,1.31,1.31,0,0,1-1.42,1.18l-.43.07c.17,1.18-.89,1.81-2,2s-2.54.33-3.78.55l-2.36,3c-.64.8-1.54,2.61-2.62,2.82s-1.59-1.5-.47-1.71c-.24,0,.15-.23.24-.34l.65-.81a7.82,7.82,0,0,1-2.13,1.89.9.9,0,0,1-1.3-1,11.74,11.74,0,0,1,.75-2,1,1,0,0,1-.33-.51l-.09.08a.91.91,0,0,1-.59.2l-.14.14C133,115.51,131.77,114.25,132.53,113.41Z" fill="#fe6162"></path><path d="M115.56,92.27s11.42-1,14.12,5,1.36,14.6,1.36,14.6l7-5.32s3.43,4.16,3.84,6.67-6.51,10.24-13.46,12-19.52,2.23-21.49-2-2.12-16.83.19-21.7S115.56,92.27,115.56,92.27Z" fill="#fab965"></path><path d="M125.69,81.61s.58,8.39-2,10.32-6.79-1.26-6.79-1.26-2.66-7.54,1.93-9.06" fill="#fe6162"></path><path d="M126.73,79.22c-.5-2-2.59-3.63-4.47-4.26a9.61,9.61,0,0,0-9.64,2.52,12,12,0,0,0-2.32,5,15.88,15.88,0,0,0-.45,3.08c-.12,2.81-.58,7.29-.7,10.19,3.61,2.22,7.29,2.24,11.52,1.67a22.28,22.28,0,0,1-.75-5.26,26.23,26.23,0,0,1,0-2.93c0-.21,0-.42,0-.63-1.17-.55-2.45-1.92-1.77-3.09a1.28,1.28,0,0,1,1.93-.38,2.62,2.62,0,0,1,.68-1.55,3.14,3.14,0,0,1,2.39-.45,24.45,24.45,0,0,0,3.52,0,1.3,1.3,0,0,0,.1-.38,10.81,10.81,0,0,1,0-2.59A3.85,3.85,0,0,0,126.73,79.22Z" fill="#1a1a1a"></path></g></g></svg>